<?xml version="1.0" encoding="UTF-8"?>
<svg width="25px" height="18px" viewBox="0 0 25 18" version="1.1" xmlns="http://www.w3.org/2000/svg" xmlns:xlink="http://www.w3.org/1999/xlink">
    <title>Group</title>
    <g id="Page-1" stroke="none" stroke-width="1" fill="none" fill-rule="evenodd">
        <g id="clixlogix-samplecode-Website-&gt;-Developer-Create-an-account" transform="translate(-860.000000, -428.000000)">
            <g id="Group" transform="translate(860.750000, 429.558088)">
                <path d="M1.3192281,5.15036275 C3.73563963,1.71678758 7.2125636,0 11.75,0 C16.2874296,0 19.76435,1.71678246 22.1807611,5.15034739 L22.1807692,5.15034167 C23.1291348,6.49790822 23.1540717,8.28915604 22.2435866,9.66260059 C19.7999228,13.3488082 16.3020606,15.191912 11.75,15.191912 C7.19794481,15.191912 3.7000855,13.3488126 1.25642207,9.66261374 L1.256416,9.66261776 C0.345930438,8.28917542 0.370865183,6.49792931 1.3192281,5.15036275 Z" id="Path-2" stroke="#B1B1B1" stroke-width="2"></path>
                <path d="M11.411539,11.9214602 C14.2445327,11.9214602 16.5411278,9.62486508 16.5411278,6.79187147 C16.5411278,3.95887785 14.2445327,1.66228276 11.411539,1.66228276 C11.411539,1.66228276 12.6578376,4.18082888 10.3535167,6.01229602 C8.0491957,7.84376316 6.28195033,6.79187147 6.28195033,6.79187147 C6.28195033,9.62486508 8.57854543,11.9214602 11.411539,11.9214602 Z" id="Oval" fill="#B1B1B1"></path>
            </g>
        </g>
    </g>
</svg>