<svg width="108" height="35" xmlns="http://www.w3.org/2000/svg">
    <g fill="#FFF" fill-rule="evenodd">
        <path d="M18.613 12.482c-2.542 0-4.387 2.012-4.387 4.785 0 2.733 1.845 4.716 4.387 4.716 2.501 0 4.387-2.027 4.387-4.716 0-2.728-1.886-4.785-4.387-4.785m-.034 13.738c-5.001 0-8.919-3.948-8.919-8.987 0-5.02 3.933-8.953 8.953-8.953 5.04 0 8.987 3.932 8.987 8.953 0 5.04-3.962 8.987-9.02 8.987M42.566 9.641l-4.668 10.495L33.334 9.64c-.348-.86-1.15-1.361-2.055-1.361-1.254 0-2.299 1.075-2.299 2.328 0 .358.104.716.314 1.146l5.956 13.503a413.014 413.014 0 0 1-2.783 5.648c-.25.468-.446.773-.45 1.327a2.25 2.25 0 0 0 2.32 2.268c.692 0 1.038-.178 1.488-.605.685-.556 3.323-6.378 3.323-6.378l7.493-15.799a2.28 2.28 0 0 0 .279-1.11c0-1.253-1.045-2.328-2.264-2.328-.94 0-1.742.537-2.09 1.361zM50.666 26.22c-1.349 0-2.366-1.014-2.366-2.358V10.603c0-1.324 1.002-2.323 2.33-2.323 1.204 0 2.154.876 2.26 2.083l.009.101.068-.076c1.125-1.247 2.636-1.934 4.255-1.934 1.267 0 2.118.836 2.118 2.08 0 1.21-.861 2.08-2.193 2.218-2.599.177-4.15 1.859-4.15 4.498v6.612c0 1.344-1.003 2.358-2.331 2.358"/>
        <path d="M50.656 8.28c-1.336 0-2.356 1.004-2.356 2.355V23.83c0 1.351 1.02 2.39 2.391 2.39 1.336 0 2.356-1.004 2.356-2.39v-6.58c0-2.632 1.547-4.26 4.078-4.433 1.336-.139 2.215-1.004 2.215-2.251 0-1.282-.879-2.113-2.145-2.113-1.652 0-3.164.727-4.254 1.94-.105-1.213-1.055-2.113-2.285-2.113m0 .087c1.17 0 2.095.855 2.198 2.033l.017.201.136-.151c1.108-1.232 2.595-1.91 4.188-1.91 1.23 0 2.057.814 2.057 2.026 0 1.18-.838 2.03-2.133 2.165-2.605.178-4.16 1.867-4.16 4.519v6.58c0 1.313-.975 2.303-2.268 2.303-1.313 0-2.303-.99-2.303-2.303V10.635c0-1.293.975-2.268 2.268-2.268M64.839 26.22c-1.562 0-2.739-1.014-2.739-2.358V10.603c0-1.324 1.195-2.323 2.781-2.323 1.562 0 2.739.999 2.739 2.323v13.26c0 1.343-1.196 2.357-2.781 2.357"/>
        <path d="M64.88 8.28c-1.594 0-2.78 1.004-2.78 2.355V23.83c0 1.351 1.186 2.39 2.74 2.39 1.594 0 2.78-1.039 2.78-2.39V10.635c0-1.35-1.186-2.355-2.74-2.355m0 .087c1.504 0 2.638.975 2.638 2.268V23.83c0 1.313-1.152 2.303-2.679 2.303-1.503 0-2.636-.99-2.636-2.303V10.635c0-1.293 1.15-2.268 2.678-2.268M79.47 12.762c-2.58 0-4.454 1.961-4.454 4.664 0 2.767 1.832 4.699 4.455 4.699 2.602 0 4.351-1.875 4.351-4.665 0-2.766-1.79-4.698-4.351-4.698m6.617 13.458a2.234 2.234 0 0 1-2.231-2.1l-.007-.107-.07.08c-1.181 1.372-3.018 2.127-5.171 2.127-4.768 0-8.229-3.684-8.229-8.76 0-5.075 3.46-8.76 8.229-8.76 2.072 0 3.872.708 5.07 1.992l.074.08v-8.47c0-1.312.99-2.302 2.3-2.302 1.293 0 2.267.99 2.267 2.303v21.649c0 1.314-.938 2.268-2.232 2.268"/>
        <path d="M79.47 22.053c-2.573 0-4.39-1.93-4.39-4.64 0-2.643 1.852-4.608 4.39-4.608 2.538 0 4.288 1.897 4.288 4.641 0 2.744-1.715 4.607-4.288 4.607M86.022 0c-1.338 0-2.333 1.017-2.333 2.338v8.333c-1.166-1.253-2.95-1.999-5.076-1.999-4.768 0-8.233 3.693-8.233 8.774 0 5.082 3.465 8.774 8.233 8.774 2.195 0 4.013-.78 5.18-2.134a2.275 2.275 0 0 0 2.263 2.134c1.304 0 2.264-.982 2.264-2.304V2.338C88.32.982 87.325 0 86.022 0M79.47 22.138c2.616 0 4.374-1.885 4.374-4.692 0-2.782-1.799-4.726-4.374-4.726-2.594 0-4.476 1.974-4.476 4.692 0 2.783 1.84 4.726 4.476 4.726M86.022.085c1.261 0 2.212.968 2.212 2.253v21.578c0 1.286-.916 2.22-2.178 2.22a2.183 2.183 0 0 1-2.178-2.055l-.012-.211-.139.16c-1.168 1.358-2.985 2.105-5.114 2.105-4.721 0-8.147-3.654-8.147-8.689s3.426-8.69 8.147-8.69c2.05 0 3.83.701 5.013 1.972l.149.16v-8.55c0-1.285.966-2.253 2.247-2.253M99.63 11.986c-1.97 0-3.514 1.347-4.032 3.514l-.013.053h7.71l-.002-.045c-.07-2.106-1.542-3.522-3.662-3.522m.575 14.234c-5.203 0-9.126-3.856-9.126-8.97 0-5.114 3.72-8.97 8.652-8.97 4.582 0 7.908 3.377 7.908 8.03v.105c0 1.41-.99 2.358-2.461 2.358h-9.595l.014.054c.549 2.188 2.277 3.443 4.743 3.443 1.256 0 2.501-.36 3.507-1.016.343-.212.64-.306.959-.306 1.036 0 1.818.789 1.818 1.835 0 .748-.338 1.3-1.131 1.843-1.52 1.043-3.349 1.594-5.288 1.594"/>
        <path d="M95.658 15.518c.504-2.112 1.985-3.463 3.971-3.463 2.12 0 3.534 1.42 3.602 3.463h-7.573zM99.73 8.28c-4.914 0-8.65 3.879-8.65 8.97 0 5.126 3.87 8.97 9.121 8.97 1.953 0 3.77-.554 5.285-1.593.807-.554 1.144-1.108 1.144-1.87 0-1.074-.808-1.87-1.851-1.87-.337 0-.64.103-.976.311-1.01.658-2.255 1.005-3.467 1.005-2.457 0-4.14-1.247-4.678-3.395h9.491c1.481 0 2.491-.935 2.491-2.39v-.103c0-4.64-3.366-8.035-7.91-8.035zm-4.18 7.325h7.768l-.003-.09c-.07-2.121-1.551-3.547-3.686-3.547-1.98 0-3.533 1.353-4.053 3.53l-.026.107zm4.18-7.238c2.178 0 4.167.8 5.6 2.252 1.435 1.455 2.226 3.478 2.226 5.696v.104c0 1.399-.945 2.303-2.407 2.303H95.548l.028.108c.552 2.198 2.286 3.46 4.76 3.46 1.257 0 2.505-.362 3.51-1.018.335-.207.623-.299.933-.299 1.007 0 1.767.767 1.767 1.784 0 .738-.32 1.258-1.107 1.798-1.505 1.032-3.316 1.578-5.238 1.578-2.513 0-4.811-.901-6.471-2.538-1.655-1.632-2.566-3.886-2.566-6.345 0-5.064 3.683-8.883 8.566-8.883zM4.302 6.49c-1.506 0-2.598-1.082-2.598-2.573 0-1.47 1.092-2.537 2.598-2.537C5.807 1.38 6.9 2.447 6.9 3.917c0 1.491-1.093 2.573-2.598 2.573M2.286 34.5C1.046 34.5 0 33.514 0 32.346c0-.558.143-.864.444-1.3 1.043-1.552 1.572-2.677 1.572-4.525V11.173c0-1.308.983-2.293 2.286-2.293 1.324 0 2.285.964 2.285 2.293V26.87c0 2.743-1.008 5.246-2.838 7.05-.423.392-.751.58-1.463.58"/>
        <path d="M4.291 8.86c-1.304 0-2.3 1.009-2.3 2.33v15.308c0 1.879-.55 2.992-1.545 4.488-.309.452-.446.766-.446 1.322C0 33.526 1.098 34.5 2.3 34.5c.687 0 1.03-.174 1.476-.592 1.923-1.913 2.815-4.487 2.815-7.062V11.191c0-1.322-.961-2.331-2.3-2.331m0-7.48c-1.51 0-2.609 1.078-2.609 2.575 0 1.53 1.099 2.609 2.61 2.609 1.51 0 2.608-1.079 2.608-2.61 0-1.496-1.098-2.574-2.609-2.574m0 7.567c1.283 0 2.214.944 2.214 2.244v15.655c0 2.724-.99 5.21-2.788 6.998-.41.385-.728.568-1.417.568-1.2 0-2.214-.963-2.214-2.104 0-.545.14-.845.432-1.273 1.034-1.554 1.56-2.682 1.56-4.537V11.191c0-1.28.951-2.244 2.213-2.244m0-7.48c1.462 0 2.523 1.046 2.523 2.488 0 1.46-1.061 2.521-2.523 2.521-1.462 0-2.522-1.06-2.522-2.521 0-1.442 1.06-2.487 2.522-2.487M64.86 6.9c-1.6 0-2.76-1.169-2.76-2.779 0-1.588 1.16-2.741 2.76-2.741 1.6 0 2.76 1.153 2.76 2.741 0 1.61-1.16 2.779-2.76 2.779"/>
        <path d="M64.86 1.38c-1.598 0-2.76 1.148-2.76 2.741 0 1.63 1.162 2.779 2.76 2.779 1.598 0 2.76-1.149 2.76-2.779 0-1.593-1.162-2.741-2.76-2.741m0 .093c1.546 0 2.669 1.114 2.669 2.648 0 1.557-1.123 2.686-2.669 2.686s-2.669-1.13-2.669-2.686c0-1.534 1.123-2.648 2.669-2.648"/>
    </g>
</svg>
