<svg width="20" height="20" viewBox="0 0 20 20" xmlns="http://www.w3.org/2000/svg">
    <g fill="none" fill-rule="evenodd">
        <path d="M10 1.25a9 9 0 1 1 0 18 9 9 0 0 1 0-18z" stroke="#000"/>
        <g fill="#000">
            <path d="M10.247 10.343c2.039 0 3.692-1.515 3.692-3.384 0-1.613-1.036-3.338-2.684-3.677-.261-.054-.729.165-1.008.165-.33 0-.722-.24-1.027-.165-1.575.386-2.665 2.11-2.665 3.677 0 1.869 1.653 3.384 3.692 3.384z"/>
            <path d="M6.645 10.473c1.34.132 2.702-.847 2.543-1.24-.16-.394-2.543-2.461-2.543-1.428 0 1.034-.994 1.256-1.47.888-.15-.117-.578.209-.514.368.159.394.643 1.281 1.984 1.412zM12.098 13.885a18.426 18.426 0 0 0-.497-2.356c-.223-.799-.633-1.318-1.546-1.318s-1.234.148-1.234.985c0 .195 0 1.64.21 2.222.21.58 3.186 1.28 3.067.467z"/>
            <path d="M10.604 14.59c.115-.04.834.717.939.658.23-.13-.207-1.1-.287-1.202-.184-.237-1.112-.526-1.258-.6-.36-.184-.552-.842-.966-.028-.033.064-1.067 2.487-1.095 2.55-.328.746-.183 1.036.439 1.036s.605-.174.923-.885c.699-1.57 1.055-1.446 1.305-1.53z"/>
            <path d="M12.031 13.528c-.078-.62-1.29.261-1.259 1.174.003.072.163 1.81.27 2.148.108.339.452.306.99.299.537-.007.23-.972.163-1.749-.15-1.71-.093-1.315-.164-1.872zM9.51 11.289c.181-.291.155-.748-.08-.895-.234-.146-.572.264-.754.556-.141.226-.83 1.495-1.02 2.117-.054.178-.556.82-.482.9.074.078.26-.158.3-.142.04.015-.228.218-.11.316.12.097.27-.244.32-.228.05.017-.118.321-.004.358.113.038.195-.296.324-.335.104-.032.031.155.197.167.165.011.1-.444.137-.481.332-.329 1.091-2.205 1.171-2.333zM10.674 11.264c-.259-.226-.367-.67-.186-.879.18-.208.624.086.883.31.202.176 1.232 1.188 1.595 1.728.104.154.772.622.724.719-.047.097-.295-.074-.329-.048-.033.027.283.142.198.27-.086.128-.328-.154-.372-.124-.043.03.207.272.109.341-.098.069-.273-.227-.409-.226-.109 0 .016.158-.139.217-.154.06-.226-.395-.272-.42-.414-.217-1.688-1.79-1.802-1.888zM4.858 9.2c.39-.098.566-1.128.074-1.49a1.069 1.069 0 0 0-.974-.143c-.263.095-.445.24-.548.433.197-.061.332-.005.406.167.085.197-.233.4 0 .77.232.369.652.362 1.042.263zM14.24 10.315c-1.089.303-2.381-.276-2.315-.613.065-.337 1.74-2.528 1.74-1.47 0 1.06 1.06.895 1.392.531.106-.115.615-.002.589.134-.066.337-.317 1.115-1.406 1.418z"/>
            <path d="M15.142 9.4c-.39-.099-.566-1.128-.074-1.49.219-.162.597-.28.974-.144.263.096.445.24.548.433-.197-.06-.332-.005-.406.168-.085.196.233.4 0 .77-.232.368-.652.362-1.042.263z"/>
        </g>
    </g>
</svg>
